<svg id="Component_2_3" data-name="Component 2 – 3" xmlns="http://www.w3.org/2000/svg" width="37.333" height="45" viewBox="0 0 37.333 45">
  <path id="file-text" d="M28,21.8v2.461a1.118,1.118,0,0,1-1.167,1.055H10.5a1.118,1.118,0,0,1-1.167-1.055V21.8A1.118,1.118,0,0,1,10.5,20.742H26.833A1.118,1.118,0,0,1,28,21.8Zm-1.167,6.328H10.5A1.118,1.118,0,0,0,9.333,29.18v2.461A1.118,1.118,0,0,0,10.5,32.7H26.833A1.118,1.118,0,0,0,28,31.641V29.18A1.118,1.118,0,0,0,26.833,28.125Zm10.5-16.532V40.781A4.461,4.461,0,0,1,32.667,45h-28A4.461,4.461,0,0,1,0,40.781V4.219A4.461,4.461,0,0,1,4.667,0H24.51a4.929,4.929,0,0,1,3.3,1.239l8.157,7.374A4.011,4.011,0,0,1,37.333,11.593ZM24.889,4.562V11.25h7.4l-7.4-6.688Zm7.778,36.22V15.469H22.556a2.224,2.224,0,0,1-2.333-2.109V4.219H4.667V40.781Z" fill="#888989"/>
</svg>
