<svg xmlns="http://www.w3.org/2000/svg" width="48.333" height="38" viewBox="0 0 48.333 38">
  <path id="message-circle" d="M47.333,19.056a12.565,12.565,0,0,1-.544,3.653,13.42,13.42,0,0,1-1.672,3.525c-3.544,5.439-10.79,8.875-18.718,8.878a25.893,25.893,0,0,1-9.359-1.7L3,37,7.68,26.233a12.922,12.922,0,0,1-2.217-7.178c0-6.08,4.484-11.637,11.576-14.356a25.542,25.542,0,0,1,5.577-1.44A26.168,26.168,0,0,1,26.4,3H27.63c10.63.45,19.117,6.959,19.7,15.111Z" transform="translate(-1 -1)" fill="rgba(93,134,66,0.31)" stroke="#5d8642" stroke-linecap="round" stroke-linejoin="round" stroke-width="4"/>
</svg>
