<svg xmlns="http://www.w3.org/2000/svg" width="29.203" height="37.963" viewBox="0 0 29.203 37.963">
  <g id="lock2" transform="translate(-4.125 -1.763)">
    <path id="Path_8" data-name="Path 8" d="M28.461,17.338V11.5a9.734,9.734,0,0,0-19.468,0v5.841A4.874,4.874,0,0,0,4.125,22.2V34.859a4.874,4.874,0,0,0,4.867,4.867H28.461a4.874,4.874,0,0,0,4.867-4.867V22.2A4.872,4.872,0,0,0,28.461,17.338ZM10.939,11.5a7.787,7.787,0,0,1,15.575,0v5.841H10.939ZM31.381,34.857a2.922,2.922,0,0,1-2.92,2.92H8.992a2.922,2.922,0,0,1-2.92-2.92V22.2a2.922,2.922,0,0,1,2.92-2.92H28.461a2.922,2.922,0,0,1,2.92,2.92Z" transform="translate(0 0)" fill="rgba(93,134,66,0.45)"/>
  </g>
</svg>
