<svg xmlns="http://www.w3.org/2000/svg" width="38.333" height="42.667" viewBox="0 0 38.333 42.667">
  <path id="file-text" d="M28,20.182v2.279a1.088,1.088,0,0,1-1.167.977H10.5a1.088,1.088,0,0,1-1.167-.977V20.182a1.088,1.088,0,0,1,1.167-.977H26.833A1.088,1.088,0,0,1,28,20.182Zm-1.167,5.859H10.5a1.088,1.088,0,0,0-1.167.977V29.3a1.088,1.088,0,0,0,1.167.977H26.833A1.088,1.088,0,0,0,28,29.3V27.018A1.088,1.088,0,0,0,26.833,26.042Zm10.5-15.308V37.76c0,2.157-2.09,3.906-4.667,3.906h-28C2.09,41.667,0,39.917,0,37.76V3.906C0,1.75,2.09,0,4.667,0H24.51a5.162,5.162,0,0,1,3.3,1.147l8.157,6.828A3.6,3.6,0,0,1,37.333,10.734ZM24.889,4.224v6.193h7.4l-7.4-6.193ZM32.667,37.76V14.323H22.556a2.163,2.163,0,0,1-2.333-1.953V3.906H4.667V37.76Z" transform="translate(0.5 0.5)" fill="#5d8642" stroke="#5d8642" stroke-width="1"/>
</svg>
