<svg xmlns="http://www.w3.org/2000/svg" viewBox="0 0 74.61 75" x="0px" y="0px"><title>Phone 4</title><g data-name="Layer 2"><g data-name="Layer 1"><path d="M55.67,75c-1.37-.23-2.75-.41-4.11-.7a53.45,53.45,0,0,1-14.43-5.91,77.1,77.1,0,0,1-19-14.88C11.42,46.22,5.84,38.19,2.32,28.85A32.09,32.09,0,0,1,0,18.3,12.7,12.7,0,0,1,3.48,8.59c2.1-2.15,4.13-4.38,6.39-6.34,3.49-3,7.29-3,10.66.14,3.56,3.34,7,6.85,10.31,10.42a7.08,7.08,0,0,1,0,9.63c-1.76,2-3.71,3.82-5.57,5.73-.17.16-.35.3-.66.58A54.26,54.26,0,0,0,46,50.08l4.44-4.49a11.21,11.21,0,0,1,4-3,6.71,6.71,0,0,1,7.31,1.3q5.59,5.32,10.9,10.94a7.14,7.14,0,0,1,.19,9.53C70.6,67,68.12,69.5,65.61,71.92a11.14,11.14,0,0,1-6.48,2.89,4.91,4.91,0,0,0-.51.15Zm1.11-4.51a8.57,8.57,0,0,0,6.65-2.62c1.68-1.76,3.4-3.48,5.1-5.22a8.37,8.37,0,0,0,.62-.7,3.06,3.06,0,0,0-.09-4.4c-1.37-1.48-2.82-2.88-4.24-4.31-1.85-1.85-3.68-3.71-5.55-5.53a3,3,0,0,0-4.37-.12c-.28.23-.53.49-.79.75-1.78,1.77-3.54,3.56-5.33,5.31a3.39,3.39,0,0,1-4.25.71c-1.09-.55-2.17-1.1-3.22-1.72A55.44,55.44,0,0,1,28.89,42.28,44.77,44.77,0,0,1,20.67,30.6c-1.06-2.34-.83-3.48,1-5.26s3.79-3.67,5.6-5.59a2.86,2.86,0,0,0,.07-4.19c-.22-.26-.45-.5-.68-.74L17.88,6C16,4.15,14.33,4.13,12.45,6S8.8,9.52,7.09,11.39a10,10,0,0,0-2,3A12.74,12.74,0,0,0,5,21.74a44.51,44.51,0,0,0,3.9,10.75A73.42,73.42,0,0,0,20.26,49a71.65,71.65,0,0,0,28.68,19.8A26.13,26.13,0,0,0,56.78,70.45Z"/></g></g></svg>