<svg xmlns="http://www.w3.org/2000/svg" width="31.365" height="21.278" viewBox="0 0 31.365 21.278">
  <g id="email" transform="translate(-4.84 -8.561)">
    <path id="Path_3" data-name="Path 3" d="M34.036,29.839H7.008a2.188,2.188,0,0,1-2.168-2.2V10.764A2.225,2.225,0,0,1,5.352,9.34a2.151,2.151,0,0,1,1.656-.779H34.036a2.188,2.188,0,0,1,2.168,2.2V27.636A2.188,2.188,0,0,1,34.036,29.839ZM7.008,9.827a.737.737,0,0,0-.558.281,1.02,1.02,0,0,0-.229.655V27.636a.883.883,0,0,0,.786.936H34.036a.883.883,0,0,0,.786-.936V10.764a.883.883,0,0,0-.786-.936Z" fill="rgba(89,129,63,0.45)"/>
    <path id="Path_4" data-name="Path 4" d="M21.7,23.585,6.569,11.428l.916-.951L21.7,21.892,35.809,10.369l.924.944Z" transform="translate(-1.174 -1.228)" fill="rgba(89,129,63,0.45)"/>
    <rect id="Rectangle_42" data-name="Rectangle 42" width="1.266" height="14.272" transform="matrix(0.787, 0.617, -0.617, 0.787, 14.219, 17.167)" fill="rgba(89,129,63,0.45)"/>
    <rect id="Rectangle_43" data-name="Rectangle 43" width="14.272" height="1.266" transform="matrix(0.617, 0.787, -0.787, 0.617, 26.858, 17.167)" fill="rgba(89,129,63,0.45)"/>
  </g>
</svg>
