<svg xmlns="http://www.w3.org/2000/svg" width="61.329" height="61.329" viewBox="0 0 61.329 61.329">
  <g id="circleArrow" transform="translate(-1.614 -2.5)">
    <path id="Path_11" data-name="Path 11" d="M33.165,2.5h0A30.665,30.665,0,0,0,2.5,33.165h0A30.665,30.665,0,0,0,33.165,63.829h0A30.665,30.665,0,0,0,63.829,33.165h0A30.665,30.665,0,0,0,33.165,2.5Zm8.8,33.492L29.769,48.187a3.823,3.823,0,0,1-5.4-5.41l9.619-9.613-9.619-9.613a3.823,3.823,0,0,1,5.4-5.41L41.964,30.337a3.809,3.809,0,0,1,1.117,2.828v.123a3.828,3.828,0,0,1-1.117,2.7Z" transform="translate(-0.886)" fill="#5d8642"/>
  </g>
</svg>
