<svg id="confirmLock" xmlns="http://www.w3.org/2000/svg" width="29.205" height="39.38" viewBox="0 0 29.205 39.38">
  <g id="Group_1" data-name="Group 1">
    <path id="Path_9" data-name="Path 9" d="M3.537,15.928H4.952V9.283A9.506,9.506,0,0,1,14.552,0a9.441,9.441,0,0,1,9.6,9.283v6.645h1.415A3.564,3.564,0,0,1,29.2,19.445V35.862a3.564,3.564,0,0,1-3.638,3.518H3.537A3.541,3.541,0,0,1,0,35.862V19.445A3.541,3.541,0,0,1,3.537,15.928Zm3.133,0H22.434V9.283a7.765,7.765,0,0,0-7.882-7.622A7.765,7.765,0,0,0,6.67,9.283Zm18.9,1.661H3.537a1.866,1.866,0,0,0-1.819,1.857V35.862a1.866,1.866,0,0,0,1.819,1.857h22.03a1.956,1.956,0,0,0,1.92-1.857V19.445A1.956,1.956,0,0,0,25.567,17.589Z" fill="rgba(93,134,66,0.45)"/>
    <path id="Path_10" data-name="Path 10" d="M85.946,245.871a.74.74,0,1,1,1.047-1.047l2.442,2.355,5.233-5.233a.74.74,0,1,1,1.047,1.047l-5.756,5.756a.653.653,0,0,1-1.047,0Z" transform="translate(-76.283 -217.466)" fill="rgba(93,134,66,0.45)"/>
  </g>
</svg>
