<svg xmlns="http://www.w3.org/2000/svg" width="30.737" height="32.012" viewBox="0 0 30.737 32.012">
  <g id="profile" transform="translate(-7.468 -7.632)">
    <path id="Path_5" data-name="Path 5" d="M33.991,26.876c-4.729,0-8.876-4.806-8.876-10.283a8.876,8.876,0,1,1,17.752,0C42.867,22.07,38.72,26.876,33.991,26.876Zm0-17.857A7.284,7.284,0,0,0,26.5,16.592c0,4.739,3.5,8.9,7.489,8.9s7.488-4.157,7.488-8.9A7.284,7.284,0,0,0,33.991,9.019Z" transform="translate(-11.155)" fill="rgba(89,129,63,0.45)"/>
    <path id="Path_6" data-name="Path 6" d="M38.2,69.152H7.468v-.736a16.157,16.157,0,0,1,7.6-13.771l.543-.33.406.489a9.1,9.1,0,0,0,6.964,3.571,9.075,9.075,0,0,0,6.869-3.459l.414-.485.539.34a15.989,15.989,0,0,1,7.4,13.646v.735ZM8.958,67.681H36.716a14.5,14.5,0,0,0-6.179-11.324,10.361,10.361,0,0,1-7.554,3.49,10.39,10.39,0,0,1-7.668-3.611A14.688,14.688,0,0,0,8.958,67.681Z" transform="translate(0 -29.508)" fill="rgba(89,129,63,0.45)"/>
  </g>
</svg>
